<?xml version="1.0" encoding="utf-8"?>
<!-- Generator: Adobe Illustrator 16.0.0, SVG Export Plug-In . SVG Version: 6.00 Build 0)  -->
<!DOCTYPE svg PUBLIC "-//W3C//DTD SVG 1.1//EN" "http://www.w3.org/Graphics/SVG/1.1/DTD/svg11.dtd">
<svg version="1.1" id="Layer_1" xmlns="http://www.w3.org/2000/svg" xmlns:xlink="http://www.w3.org/1999/xlink" x="0px" y="0px"
	 width="135px" height="75px" viewBox="0 0 135 75" enable-background="new 0 0 135 75" xml:space="preserve">
<g>
	<path fill="#682F80" d="M9.38,14.982l-2.783-2.786L9.38,9.413l2.781,2.783L9.38,14.982z M14.638,12.196l2.948-2.948
		c0.343-0.345,0.229-0.783-0.113-1.128c-0.342-0.341-0.781-0.454-1.123-0.11l-2.951,2.95l-2.783-2.786l2.951-2.949
		c0.34-0.342,0.228-0.783-0.115-1.125c-0.34-0.339-0.78-0.455-1.123-0.113L9.38,6.938L6.494,4.05C6.151,3.712,5.646,3.761,5.307,4.1
		C4.963,4.441,4.913,4.946,5.254,5.289l2.888,2.885L5.357,10.96L2.471,8.074C2.13,7.729,1.625,7.779,1.283,8.121
		C0.944,8.465,0.893,8.969,1.234,9.309l2.885,2.888L1.234,15.08c-0.342,0.343-0.29,0.847,0.051,1.188
		c0.34,0.344,0.845,0.39,1.188,0.051l2.885-2.887l2.784,2.786l-2.885,2.886c-0.343,0.341-0.294,0.846,0.05,1.186
		c0.34,0.342,0.845,0.395,1.188,0.049l2.886-2.885l2.948,2.949c0.342,0.346,0.781,0.23,1.123-0.113
		c0.342-0.34,0.455-0.78,0.115-1.12l-2.951-2.951l2.785-2.786l2.949,2.951c0.342,0.34,0.781,0.228,1.122-0.115
		c0.343-0.341,0.457-0.779,0.114-1.123L14.638,12.196z"/>
	<path fill="#010101" d="M32.342,10.549c-0.055-1.73-1.562-2.827-3.209-2.827c-1.674,0-3.101,1.123-3.101,2.851
		c0,1.812,1.398,2.828,3.072,2.828C30.779,13.4,32.287,12.411,32.342,10.549 M25.73,19.379c-0.795,0.387-1.455,1.073-1.455,2.006
		c0,1.044,0.906,1.756,1.785,2.086c0.849,0.3,2.027,0.412,2.908,0.412c1.564,0,4.773-0.385,4.773-2.551
		c0-2.197-3.018-2.498-4.663-2.498C28.088,18.834,26.636,18.945,25.73,19.379 M28.229,16.883c1.562,0,3.1,0.059,4.58,0.551
		c1.729,0.575,3.209,1.867,3.209,3.84c0,3.515-4.334,4.393-7.077,4.393c-2.716,0-6.94-0.741-6.94-4.254
		c0-1.618,1.097-2.771,2.576-3.235V18.12c-1.289-0.438-2.303-1.153-2.303-2.607c0-1.428,0.988-2.385,2.303-2.771
		c-0.547-0.628-0.768-1.509-0.768-2.386c0-2.854,2.634-4.42,5.243-4.42c0.548,0,1.097,0.029,1.644,0.195
		c-0.081-1.783,1.509-2.826,3.156-2.826c1.482,0,3.098,0.821,3.098,2.496c0,0.794-0.628,1.592-1.479,1.592
		c-0.578,0-1.098-0.467-1.098-1.071c0-0.41,0.302-0.685,0.603-0.901c-0.272-0.387-0.687-0.552-1.151-0.552
		c-1.098,0-1.564,0.88-1.51,1.864c1.344,0.799,2.141,2.307,2.141,3.867c0,2.967-2.551,4.639-5.213,4.639
		c-1.1,0-2.141-0.303-3.154-0.74c-0.193-0.082-0.523-0.192-0.742-0.192c-0.604,0-1.016,0.63-1.016,1.181
		c0,1.342,1.895,1.396,2.883,1.396H28.229z"/>
	<path fill="#010101" d="M42.987,3.723c0,0.882-0.712,1.592-1.591,1.592c-0.85,0-1.562-0.71-1.562-1.592
		c0-0.875,0.713-1.562,1.562-1.562C42.275,2.16,42.987,2.848,42.987,3.723 M40.821,10.778c0-1.923-0.192-2.309-0.796-2.309
		c-0.467,0-0.88,0.167-1.262,0.167c-0.551,0-0.934-0.387-0.934-0.907c0-0.63,0.439-1.013,0.96-1.013
		c0.741,0,1.153,0.299,1.812,0.299c0.684,0,1.042-0.299,1.562-0.299c0.633,0,0.77,0.631,0.77,1.176v10.209
		c0,0.659,0.219,1.125,0.713,1.125c0.305,0,0.686-0.191,1.098-0.162c0.549,0,0.934,0.385,0.934,0.905
		c0,0.628-0.604,1.014-1.179,1.014c-0.935,0-1.646-0.302-2.827-0.302c-1.152,0-1.947,0.302-2.908,0.302
		c-0.467,0-0.934-0.491-0.934-1.014c0-0.521,0.383-0.905,0.934-0.905c0.382,0,0.795,0.162,1.262,0.162
		c0.63,0,0.796-0.603,0.796-2.304V10.778z"/>
	<path fill="#010101" d="M49.572,10.778c0-1.869-0.22-2.309-0.82-2.309c-0.469,0-0.881,0.167-1.596,0.167
		c-0.545,0-0.932-0.387-0.932-0.907c0-0.63,0.604-1.013,1.235-1.013c0.522,0,0.933,0.299,1.591,0.299
		c0.688,0,1.041-0.299,1.565-0.299c0.712,0,0.796,0.578,0.769,1.673h0.055c0.852-1.398,2.224-2.057,3.867-2.057
		c2.305,0,4.42,1.37,4.42,3.868c0,1.398-0.633,2.825-2.305,2.825c-0.744,0-1.484-0.522-1.484-1.316c0-0.603,0.496-1.181,1.123-1.181
		c0.113,0,0.25,0.057,0.361,0.082c0.106-0.221,0.162-0.385,0.162-0.631c0-1.234-1.344-1.92-2.441-1.92
		c-2.084,0-3.457,1.207-3.457,5.186v3.677c0,2.003,0.385,2.304,0.881,2.304c0.464,0,0.875-0.162,1.259-0.162
		c0.55,0,0.933,0.385,0.933,0.905c0,0.628-0.603,1.014-1.18,1.014c-0.932,0-1.701-0.302-2.827-0.302
		c-1.148,0-1.782,0.302-2.905,0.302c-0.633,0-1.234-0.386-1.234-1.014c0-0.521,0.383-0.905,0.932-0.905
		c0.384,0,0.795,0.162,1.262,0.162c0.604,0,0.768-0.386,0.768-2.304V10.778z"/>
	<path fill="#010101" d="M61.932,5.729c0-2.253-0.41-2.307-0.795-2.307c-0.464,0-0.877,0.163-1.508,0.163
		c-0.548,0-0.932-0.381-0.932-0.904c0-0.629,0.603-1.014,1.263-1.014c0.849,0,1.288,0.303,1.837,0.303
		c0.713,0,0.961-0.303,1.482-0.303c0.684,0,0.766,0.439,0.766,1.427v13.829c0,2.002,0.331,2.305,0.795,2.305
		c0.467,0,0.879-0.164,1.264-0.164c0.549,0,0.935,0.383,0.935,0.905c0,0.63-0.605,1.013-1.181,1.013
		c-0.932,0-1.481-0.299-2.826-0.299c-1.262,0-1.947,0.299-2.906,0.299c-0.578,0-1.181-0.383-1.181-1.013
		c0-0.522,0.382-0.905,0.931-0.905c0.385,0,0.798,0.164,1.262,0.164c0.66,0,0.795-0.742,0.795-2.305V5.729z"/>
	<path fill="#010101" d="M68.422,10.778c0-2.938,2.662-4.445,5.352-4.445c1.125,0,2.33,0.19,3.236,0.962
		c-0.082-0.632,0.166-1.154,0.877-1.154c0.577,0,0.934,0.328,0.934,0.906c0,0.683-0.164,1.343-0.164,2.03
		c0,0.685,0.164,1.372,0.164,2.03c0,0.574-0.356,1.013-0.984,1.013c-0.551,0-0.881-0.41-0.881-1.316c0-1.069-0.111-1.26-0.603-1.618
		c-0.714-0.521-1.702-0.988-2.579-0.988c-1.428,0-3.074,0.77-3.074,2.414c0,1.347,0.906,1.812,3.268,2.112
		c3.729,0.493,5.679,1.264,5.679,4.145c0,3.102-2.91,4.497-5.679,4.497c-1.457,0-2.883-0.356-4.008-1.287
		c0.138,1.015-0.328,1.537-0.934,1.537c-0.713,0-1.043-0.522-1.043-1.153c0-0.796,0.22-1.536,0.22-2.305
		c0-0.713-0.22-1.454-0.22-2.196c0-0.604,0.356-0.986,0.959-0.986c0.497,0,0.828,0.221,0.854,0.904
		c0.137,1.619,0.137,1.948,0.74,2.469c0.878,0.771,2.525,1.154,3.648,1.154c0.768,0,1.619-0.137,2.249-0.631
		c0.551-0.441,0.935-1.07,0.935-1.784c0-1.7-1.592-2.083-2.963-2.251C71.769,14.536,68.422,14.15,68.422,10.778"/>
	<path fill="#010101" d="M24.743,33.656c0-2.248-0.413-2.303-0.798-2.303c-0.467,0-0.876,0.164-1.509,0.164
		c-0.548,0-0.933-0.385-0.933-0.904c0-0.635,0.604-1.016,1.262-1.016c0.852,0,1.289,0.302,1.839,0.302
		c0.714,0,0.96-0.302,1.483-0.302c0.685,0,0.768,0.438,0.768,1.425v12.938c0,2.001,0.329,2.303,0.797,2.303
		c0.465,0,0.876-0.164,1.26-0.164c0.548,0,0.933,0.383,0.933,0.906c0,0.631-0.603,1.012-1.179,1.012
		c-0.932,0-1.481-0.299-2.828-0.299c-1.262,0-1.945,0.299-2.906,0.299c-0.576,0-1.18-0.381-1.18-1.012
		c0-0.523,0.385-0.906,0.932-0.906c0.386,0,0.795,0.164,1.262,0.164c0.659,0,0.798-0.739,0.798-2.303V33.656z"/>
	<path fill="#010101" d="M40.416,39.215c-0.135-2.25-1.426-3.98-3.867-3.98c-2.361,0-4.033,1.673-4.225,3.98H40.416z M32.076,41.188
		c-0.109,2.8,1.399,5.349,4.417,5.349c1.866,0,3.267-0.931,3.788-2.713c0.163-0.579,0.3-1.209,1.041-1.209
		c0.604,0,1.098,0.411,1.098,1.045c0,1.123-0.822,2.411-1.617,3.152c-1.154,1.099-2.91,1.592-4.473,1.592
		c-4.309,0-6.529-3.21-6.529-7.271c0-1.866,0.464-3.87,1.617-5.35c1.234-1.566,3.074-2.415,5.049-2.415
		c3.703,0,6.229,2.662,6.229,6.338c0,1.371,0,1.481-1.316,1.481H32.076z"/>
	<path fill="#010101" d="M48.895,46.537c1.29,0,2.635-0.382,3.459-1.453c0.603-0.85,0.685-1.699,0.685-2.661
		c0-0.575,0.028-1.178,0.055-1.754c-1.015,0.985-2.522,1.043-3.84,1.179c-1.454,0.137-3.21,0.493-3.21,2.387
		C46.043,45.878,47.44,46.537,48.895,46.537 M55.233,43.602c-0.028,0.853-0.274,2.99,1.044,2.99c1.18,0,0.986-1.753,0.986-2.551
		c0-0.767-0.109-1.646,0.877-1.646c0.77,0,0.961,0.495,0.961,1.125c0,2.086,0,3.017-0.575,3.786c-0.55,0.769-1.51,0.987-2.416,0.987
		c-1.343,0-2.521-0.603-2.797-1.976c-0.96,1.536-2.688,2.086-4.444,2.086c-1.125,0-2.307-0.191-3.266-0.796
		c-1.125-0.713-1.84-1.892-1.84-3.264c0-1.536,0.605-2.745,1.867-3.486c1.207-0.714,2.332-0.823,3.678-0.987
		c1.645-0.164,3.812-0.137,3.812-2.166c0-1.84-1.481-2.471-3.101-2.471c-0.711,0-1.508,0.248-2.111,0.603
		c-0.22,0.137-0.631,0.413-0.631,0.713c0,0.138,0.658,0.165,0.658,1.128c0,0.823-0.714,1.289-1.482,1.289
		c-0.961,0-1.701-0.77-1.701-1.759c0-1.177,0.77-2.167,1.701-2.825c0.987-0.684,2.416-1.014,3.623-1.014
		c1.289,0,2.715,0.301,3.759,1.098c1.343,1.04,1.534,2.522,1.508,4.17L55.233,43.602z"/>
	<path fill="#010101" d="M62.752,37.814c0-1.867-0.22-2.308-0.824-2.308c-0.466,0-0.877,0.167-1.592,0.167
		c-0.548,0-0.932-0.384-0.932-0.906c0-0.631,0.604-1.015,1.234-1.015c0.521,0,0.932,0.303,1.591,0.303
		c0.687,0,1.042-0.303,1.564-0.303c0.712,0,0.796,0.574,0.768,1.674h0.056c0.851-1.399,2.223-2.058,3.868-2.058
		c2.305,0,4.419,1.37,4.419,3.867c0,1.402-0.633,2.828-2.305,2.828c-0.742,0-1.482-0.524-1.482-1.318c0-0.604,0.492-1.18,1.122-1.18
		c0.111,0,0.249,0.055,0.36,0.082c0.107-0.22,0.161-0.385,0.161-0.629c0-1.236-1.341-1.92-2.439-1.92
		c-2.086,0-3.458,1.205-3.458,5.186v3.676c0,2,0.385,2.305,0.879,2.305c0.467,0,0.877-0.166,1.262-0.166
		c0.548,0,0.932,0.383,0.932,0.904c0,0.634-0.604,1.014-1.18,1.014c-0.93,0-1.702-0.299-2.825-0.299
		c-1.151,0-1.782,0.299-2.907,0.299c-0.633,0-1.235-0.38-1.235-1.014c0-0.521,0.384-0.904,0.932-0.904
		c0.387,0,0.794,0.166,1.265,0.166c0.603,0,0.768-0.387,0.768-2.305V37.814z"/>
	<path fill="#010101" d="M76.434,37.842c0-1.895-0.164-2.335-0.793-2.335c-0.469,0-0.879,0.168-1.266,0.168
		c-0.547,0-0.931-0.385-0.931-0.907c0-0.494,0.548-1.015,1.015-1.015c0.576,0,0.769,0.303,1.481,0.303
		c0.795,0,1.043-0.303,1.729-0.303c0.575,0,0.604,0.604,0.604,1.646h0.053c1.044-1.427,2.883-2.03,4.584-2.03
		c1.452,0,2.88,0.492,3.977,1.48c1.208,1.098,1.264,2.498,1.264,4.007v5.104c0,1.67,0.165,2.331,0.794,2.331
		c0.467,0,0.878-0.163,1.263-0.163c0.549,0,0.934,0.383,0.934,0.902c0,0.633-0.439,0.988-1.179,0.988
		c-0.907,0-1.565-0.301-2.8-0.301c-1.316,0-1.949,0.301-2.938,0.301c-0.739,0-1.18-0.355-1.18-0.988c0-0.52,0.387-0.902,0.936-0.902
		c0.382,0,0.795,0.163,1.262,0.163c0.686,0,0.795-0.603,0.795-2.331v-4.062c0-1.756,0-2.305-0.439-3.154
		c-0.549-1.069-1.838-1.51-2.989-1.51c-1.235,0-2.662,0.522-3.347,1.593c-0.33,0.521-0.713,1.124-0.713,3.867v3.237
		c0,1.675,0.162,2.332,0.795,2.332c0.464,0,0.877-0.164,1.262-0.164c0.549,0,0.93,0.383,0.93,0.904c0,0.634-0.435,1.016-1.178,1.016
		c-0.905,0-1.562-0.301-2.797-0.301c-1.316,0-1.949,0.301-2.938,0.301c-0.742,0-1.179-0.382-1.179-1.016
		c0-0.521,0.384-0.904,0.931-0.904c0.387,0,0.797,0.164,1.266,0.164c0.684,0,0.793-0.603,0.793-2.332V37.842z"/>
	<path fill="#010101" d="M97.039,30.766c0,0.875-0.713,1.588-1.593,1.588c-0.849,0-1.562-0.713-1.562-1.588
		c0-0.883,0.713-1.568,1.562-1.568C96.326,29.197,97.039,29.883,97.039,30.766 M94.873,37.814c0-1.922-0.193-2.308-0.797-2.308
		c-0.469,0-0.879,0.167-1.262,0.167c-0.549,0-0.935-0.384-0.935-0.906c0-0.631,0.44-1.015,0.962-1.015
		c0.739,0,1.152,0.303,1.81,0.303c0.687,0,1.044-0.303,1.565-0.303c0.631,0,0.769,0.632,0.769,1.179v10.207
		c0,0.66,0.22,1.127,0.712,1.127c0.301,0,0.687-0.194,1.098-0.166c0.551,0,0.933,0.383,0.933,0.904c0,0.634-0.602,1.014-1.182,1.014
		c-0.932,0-1.644-0.299-2.824-0.299c-1.151,0-1.946,0.299-2.907,0.299c-0.467,0-0.935-0.491-0.935-1.014
		c0-0.521,0.386-0.904,0.935-0.904c0.383,0,0.793,0.166,1.262,0.166c0.631,0,0.797-0.604,0.797-2.305V37.814z"/>
	<path fill="#010101" d="M103.598,37.842c0-1.895-0.166-2.335-0.799-2.335c-0.465,0-0.876,0.168-1.26,0.168
		c-0.547,0-0.934-0.385-0.934-0.907c0-0.494,0.547-1.015,1.016-1.015c0.577,0,0.768,0.303,1.48,0.303
		c0.797,0,1.045-0.303,1.729-0.303c0.576,0,0.604,0.604,0.604,1.646h0.056c1.043-1.427,2.882-2.03,4.581-2.03
		c1.454,0,2.883,0.492,3.98,1.48c1.206,1.098,1.26,2.498,1.26,4.007v5.104c0,1.67,0.167,2.331,0.797,2.331
		c0.467,0,0.879-0.163,1.262-0.163c0.551,0,0.935,0.383,0.935,0.902c0,0.633-0.439,0.988-1.179,0.988
		c-0.908,0-1.565-0.301-2.799-0.301c-1.32,0-1.951,0.301-2.936,0.301c-0.742,0-1.182-0.355-1.182-0.988
		c0-0.52,0.383-0.902,0.932-0.902c0.384,0,0.799,0.163,1.265,0.163c0.683,0,0.793-0.603,0.793-2.331v-4.062
		c0-1.756,0-2.305-0.438-3.154c-0.548-1.069-1.839-1.51-2.991-1.51c-1.234,0-2.66,0.522-3.346,1.593
		c-0.328,0.521-0.714,1.124-0.714,3.867v3.237c0,1.675,0.163,2.332,0.796,2.332c0.465,0,0.877-0.164,1.262-0.164
		c0.549,0,0.932,0.383,0.932,0.904c0,0.634-0.438,1.016-1.179,1.016c-0.905,0-1.565-0.301-2.799-0.301
		c-1.316,0-1.947,0.301-2.936,0.301c-0.741,0-1.181-0.382-1.181-1.016c0-0.521,0.387-0.904,0.934-0.904
		c0.384,0,0.795,0.164,1.26,0.164c0.688,0,0.799-0.603,0.799-2.332V37.842z"/>
	<path fill="#010101" d="M128.948,37.977c-0.054-1.727-1.562-2.824-3.208-2.824c-1.676,0-3.103,1.126-3.103,2.853
		c0,1.813,1.401,2.827,3.073,2.827C127.387,40.832,128.895,39.843,128.948,37.977 M122.338,46.811
		c-0.795,0.384-1.454,1.074-1.454,2.008c0,1.04,0.903,1.754,1.782,2.084c0.85,0.303,2.031,0.412,2.907,0.412
		c1.564,0,4.775-0.388,4.775-2.554c0-2.194-3.019-2.497-4.664-2.497C124.697,46.264,123.241,46.373,122.338,46.811 M124.834,44.314
		c1.562,0,3.1,0.058,4.58,0.553c1.729,0.575,3.211,1.863,3.211,3.84c0,3.512-4.336,4.388-7.079,4.388c-2.717,0-6.94-0.74-6.94-4.254
		c0-1.616,1.1-2.77,2.578-3.234V45.55c-1.29-0.438-2.305-1.151-2.305-2.604c0-1.43,0.988-2.389,2.305-2.771
		c-0.549-0.632-0.77-1.511-0.77-2.387c0-2.855,2.637-4.418,5.242-4.418c0.549,0,1.098,0.027,1.646,0.191
		c-0.083-1.784,1.508-2.822,3.155-2.822c1.484,0,3.103,0.818,3.103,2.494c0,0.795-0.632,1.592-1.481,1.592
		c-0.578,0-1.099-0.466-1.099-1.069c0-0.412,0.301-0.688,0.604-0.907c-0.277-0.383-0.688-0.552-1.154-0.552
		c-1.099,0-1.562,0.882-1.51,1.868c1.348,0.798,2.143,2.308,2.143,3.867c0,2.965-2.551,4.639-5.215,4.639
		c-1.096,0-2.14-0.302-3.155-0.738c-0.19-0.084-0.521-0.194-0.741-0.194c-0.604,0-1.015,0.631-1.015,1.179
		c0,1.347,1.893,1.398,2.882,1.398H124.834z"/>
	<path fill="#010101" d="M31.932,68.637c0.191-0.74,0.3-1.701,1.262-1.701c0.576,0,1.068,0.496,1.068,1.07
		c0,1.071-0.795,2.607-1.508,3.375c-1.125,1.238-2.743,1.782-4.391,1.782c-4.17,0-6.363-3.402-6.363-7.242
		c0-4.251,2.168-7.792,6.748-7.792c1.125,0,2.389,0.331,3.32,0.987c1.043,0.714,1.838,2.003,1.838,3.295
		c0,1.288-0.632,2.495-2.057,2.495c-0.852,0-1.619-0.604-1.619-1.51c0-0.795,0.686-1.236,1.426-1.264
		c-0.055-1.425-1.783-2.141-3.016-2.141c-3.104,0-4.365,2.966-4.365,5.656c0,2.658,1.016,5.652,4.227,5.652
		C30.202,71.301,31.492,70.258,31.932,68.637"/>
	<path fill="#010101" d="M42.191,71.299c3.377,0,4.473-2.908,4.473-5.816c0-1.262-0.275-2.801-0.986-3.897
		c-0.742-1.151-2.004-1.593-3.319-1.593c-1.537,0-2.69,0.523-3.485,1.868c-0.631,1.071-0.932,2.524-0.932,3.73
		C37.941,68.307,38.984,71.299,42.191,71.299 M42.191,58.129c1.978,0,3.762,0.521,5.023,2.086c1.206,1.481,1.727,3.51,1.727,5.376
		c0,4.17-2.33,7.572-6.777,7.572c-4.359,0-6.502-3.483-6.502-7.489C35.662,61.643,37.775,58.129,42.191,58.129"/>
	<path fill="#010101" d="M52.566,65.703c0,2.688,1.205,5.596,4.25,5.596c1.4,0,2.743-0.604,3.377-1.896
		c0.547-1.097,0.629-2.576,0.629-3.866c0-1.316-0.082-2.881-0.877-3.978c-0.797-1.1-1.947-1.567-3.292-1.567
		C53.496,59.992,52.566,63.039,52.566,65.703 M62.936,68.721c0,1.895,0.221,2.302,0.797,2.302c0.467,0,0.875-0.162,1.261-0.162
		c0.549,0,0.933,0.383,0.933,0.903c0,0.635-0.438,1.018-0.904,1.018c-0.494,0-0.989-0.303-1.62-0.303
		c-0.603,0-0.823,0.303-1.481,0.303c-0.712,0-0.959-0.275-0.959-1.316v-0.279h-0.057c-0.85,1.402-2.605,1.98-4.225,1.98
		c-4.363,0-6.393-3.622-6.393-7.602c0-3.868,1.975-7.436,6.229-7.436c1.701,0,3.291,0.549,4.254,2.057h0.053v-2.659
		c0-2.031-0.276-2.305-0.795-2.305c-0.468,0-0.879,0.164-1.263,0.164c-0.548,0-0.935-0.386-0.935-0.906
		c0-0.603,0.523-1.014,1.045-1.014c0.77,0,1.18,0.3,1.947,0.3c0.715,0,1.098-0.3,1.648-0.3c0.301,0,0.465,0.216,0.465,1.181V68.721z
		"/>
	<path fill="#010101" d="M76.928,63.974c-0.135-2.25-1.426-3.979-3.869-3.979c-2.359,0-4.031,1.673-4.224,3.979H76.928z
		 M68.588,65.949c-0.108,2.797,1.399,5.352,4.418,5.352c1.863,0,3.266-0.934,3.787-2.717c0.162-0.575,0.299-1.207,1.041-1.207
		c0.604,0,1.098,0.41,1.098,1.04c0,1.127-0.824,2.416-1.619,3.156c-1.151,1.098-2.908,1.59-4.471,1.59
		c-4.31,0-6.53-3.209-6.53-7.272c0-1.863,0.465-3.869,1.617-5.347c1.235-1.565,3.075-2.415,5.05-2.415
		c3.703,0,6.227,2.661,6.227,6.34c0,1.371,0,1.48-1.315,1.48H68.588z"/>
</g>
</svg>
